PathFileType	4	(X/Y/Z)	C:\Users\Basilio\Documents\Thesis Gigler\squatting_fais\c3dfiles\040\SJ_pre2\markers_experimental.trc
DataRate	CameraRate	NumFrames	NumMarkers	Units	OrigDataRate	OrigDataStartFrame	OrigNumFrames
200.000000	200.000000	4	64	mm	200.000000	498	1328
Frame#	Time	FHD			LBHD			RBHD			C7			T10			CLAV			LSHO			LUUPA			LMUPA			LDUPA			LLEP			LMEP			LRAD			LUL			LRFIN			RSHO			RUPA1			RMUPA			RDUPA			RLEP			RMEP			RRAD			RUL			RUFIN			RASI			USACR			LSACR			RSACR			LTHI1			LTHI2			LTHI3			LTHI4			LLFC			LMFC			LTIB1			LTIB2			LTIB3			LTIB4			LLMAL			LMMAL			LHEE			LMT1			LMT2			LMT5			RTHI			RTHI2			RTHI3			RTHI4			RLFC			RMFC			RTIB1			RTIB2			RTIB3			RTIB4			RLMAL			RMMAL			RHEE			RMT1			RMT2			RMT5			LASI			*61			*62			*63			
		X1	Y1	Z1	X2	Y2	Z2	X3	Y3	Z3	X4	Y4	Z4	X5	Y5	Z5	X6	Y6	Z6	X7	Y7	Z7	X8	Y8	Z8	X9	Y9	Z9	X10	Y10	Z10	X11	Y11	Z11	X12	Y12	Z12	X13	Y13	Z13	X14	Y14	Z14	X15	Y15	Z15	X16	Y16	Z16	X17	Y17	Z17	X18	Y18	Z18	X19	Y19	Z19	X20	Y20	Z20	X21	Y21	Z21	X22	Y22	Z22	X23	Y23	Z23	X24	Y24	Z24	X25	Y25	Z25	X26	Y26	Z26	X27	Y27	Z27	X28	Y28	Z28	X29	Y29	Z29	X30	Y30	Z30	X31	Y31	Z31	X32	Y32	Z32	X33	Y33	Z33	X34	Y34	Z34	X35	Y35	Z35	X36	Y36	Z36	X37	Y37	Z37	X38	Y38	Z38	X39	Y39	Z39	X40	Y40	Z40	X41	Y41	Z41	X42	Y42	Z42	X43	Y43	Z43	X44	Y44	Z44	X45	Y45	Z45	X46	Y46	Z46	X47	Y47	Z47	X48	Y48	Z48	X49	Y49	Z49	X50	Y50	Z50	X51	Y51	Z51	X52	Y52	Z52	X53	Y53	Z53	X54	Y54	Z54	X55	Y55	Z55	X56	Y56	Z56	X57	Y57	Z57	X58	Y58	Z58	X59	Y59	Z59	X60	Y60	Z60	X61	Y61	Z61	X62	Y62	Z62	X63	Y63	Z63	X64	Y64	Z64	

499	2.49	17.6701774597168	1071.418823242188	-881.5214843750002	-109.2550582885742	1026.88720703125	-925.8316650390627	-167.1175689697266	990.0938720703127	-794.5670166015627	-182.2063598632813	930.5198364257815	-850.810485839844	-429.7904052734376	751.9379882812501	-853.5141601562502	-124.5326843261719	789.3212890625002	-844.3967895507815	-82.24137115478517	831.885681152344	-1007.809753417969	-190.8896636962891	759.1185302734376	-1178.307006835938	-221.9278717041016	722.3935546875001	-1167.331909179688	-239.7142944335938	736.2231445312501	-1223.037841796875	-292.0214233398438	722.9879760742189	-1266.237915039063	-328.9868774414063	787.6080322265627	-1255.055053710938	-526.8751831054689	658.0432739257814	-1092.79052734375	-511.7546691894532	591.8470458984376	-1124.635375976563	-488.5582580566407	642.1383056640626	-1040.196655273438	-113.8161163330078	834.498718261719	-679.9328613281251	-237.0341186523438	830.8583984375002	-516.4523925781251	-258.9104309082032	785.818298339844	-510.8082275390626	-285.0684509277344	817.316833496094	-467.765106201172	-340.0055847167969	787.0285644531252	-428.6350097656251	-397.1740722656251	838.9724121093752	-468.7903442382814	-487.675262451172	643.8283081054689	-627.7443847656251	-472.8775329589845	582.0685424804689	-582.8883666992189	-434.6016540527345	627.9244384765626	-675.7430419921876	nan	nan	nan	-567.1234130859376	662.0684814453126	-855.1196899414065	-589.0645751953126	642.8753051757814	-885.976745605469	-599.3379516601564	641.7675170898439	-832.339050292969	-400.7728576660157	453.543426513672	-1093.20263671875	-320.2650451660157	476.8397216796876	-1112.630249023438	-307.8901367187501	519.6070556640626	-1101.664672851563	-273.2538452148438	440.196502685547	-1118.598754882813	-157.7466125488282	430.5356445312501	-1134.247436523438	-140.7655181884766	383.0775451660157	-1011.176147460938	-212.8059082031251	235.2257995605469	-1108.182250976563	-297.3472595214844	249.3634948730469	-1137.540283203125	-266.6708374023438	218.5563049316407	-1127.75390625	-301.4520568847657	146.7430114746094	-1099.684692382813	-405.6611633300782	104.4582138061524	-1108.293579101563	-357.2840270996094	98.75708007812503	-1032.513916015625	-467.9175109863282	47.78976058959962	-1065.554565429688	-245.7464752197266	56.66776657104494	-1090.775634765625	-257.6929321289063	55.70710372924806	-1135.959106445313	-312.8208007812501	33.28183746337891	-1175.305297851563	-394.2677307128907	476.2520751953126	-623.9160156250001	-330.2351989746094	492.4983215332032	-611.3438720703126	-317.2052917480469	522.2341308593751	-621.5534667968751	-267.2412109375001	437.3894042968751	-596.1384277343751	-177.2981872558594	410.6185913085939	-579.5485839843751	-146.4278411865235	389.9850158691407	-713.3610229492189	-219.0853729248047	246.8179016113282	-609.2524414062501	-328.6259765625001	235.5848236083985	-605.3864746093751	-293.0914306640626	204.714096069336	-608.7435302734376	-304.6228637695313	156.7061614990235	-640.9406127929689	-416.0303649902345	101.3909454345703	-636.5722656250001	-375.7349853515626	98.31248474121097	-717.7111206054689	-476.5218200683595	49.95141983032228	-696.8571166992189	-258.6708068847657	54.61732864379884	-644.4525756835939	-272.1664123535157	58.12501907348634	-606.9201660156251	-326.0572814941407	36.03732299804688	-565.6121826171876	nan	nan	nan	nan	nan	nan	nan	nan	nan	nan	nan	nan	
500	2.495	17.75609397888184	1071.161499023438	-881.4935302734377	-109.0808792114258	1026.592041015625	-926.016540527344	-167.0498504638672	990.0190429687502	-794.630554199219	-182.1953125	930.488464355469	-850.7344360351565	-429.7945861816407	751.8751831054689	-853.482116699219	-124.6408004760742	789.3399658203127	-844.2458496093752	-82.25857543945314	831.6113281250002	-1007.723999023438	-190.9121246337891	758.8970336914064	-1178.2919921875	-221.8725891113282	722.1726684570314	-1167.377075195313	-239.6200866699219	736.0754394531251	-1223.133911132813	-292.0735473632813	722.8149414062501	-1266.217895507813	-328.9154357910157	787.4763793945315	-1255.164306640625	-526.7743530273439	657.9426269531251	-1092.763549804688	-511.7299804687501	591.7921142578126	-1124.6298828125	-488.5000915527345	642.0515136718751	-1040.217163085938	-113.8290405273438	834.339538574219	-679.8381347656251	-237.2261199951172	830.591491699219	-516.3719482421876	-258.9137573242188	785.5364379882815	-510.8704833984376	-285.2333068847657	817.093933105469	-467.6425781250001	-340.2133483886719	787.2556762695315	-428.530731201172	-397.2051086425782	838.6299438476565	-468.6442871093751	-487.7400207519532	643.5768432617189	-627.6701049804689	-472.9525146484376	581.7857666015626	-582.8655395507814	-434.5142517089845	627.6861572265626	-675.6334228515626	nan	nan	nan	-567.0020751953126	661.8710937500001	-855.083923339844	-589.0750122070314	642.8645629882814	-885.9307250976565	-599.4439086914064	641.6989746093751	-832.510925292969	-400.6712036132814	453.5470275878907	-1093.130859375	-320.2485046386719	476.7835083007814	-1112.564697265625	-307.8405151367188	519.5453491210939	-1101.549560546875	-273.2167663574219	440.1293334960939	-1118.53759765625	-157.634521484375	430.4743041992189	-1134.197021484375	-140.6658172607422	382.9829406738282	-1011.087585449219	-212.7620391845704	235.1512451171876	-1108.18994140625	-297.3320922851563	249.3738098144532	-1137.46728515625	-266.7061157226563	218.5663146972657	-1127.744140625	-301.5993652343751	146.9752960205078	-1099.762329101563	-405.6352539062501	104.4615020751953	-1108.304565429688	-357.2902526855469	98.78453063964847	-1032.49853515625	-467.858367919922	47.8320655822754	-1065.567626953125	-245.8633270263672	56.62598419189455	-1090.71337890625	-257.7034606933594	55.73117446899415	-1135.943237304688	-312.7901611328126	33.26081085205079	-1175.299560546875	-394.2362670898439	476.0567016601564	-623.7655029296876	-330.2632446289063	492.4316406250001	-611.2905883789064	-317.2525024414063	522.1767578125001	-621.4175415039064	-267.2592468261719	437.3519897460939	-596.0659790039064	-177.2720184326172	410.6364746093751	-579.4730224609376	-146.4944000244141	389.9985961914064	-713.1853027343751	-218.9809875488282	246.7182922363282	-609.1820678710939	-328.6589965820313	235.5267028808594	-605.3197631835939	-293.0984802246094	204.6963806152344	-608.7210693359376	-305.1918029785157	156.1686096191407	-641.5816650390626	-416.0512695312501	101.3816375732422	-636.5407104492189	-375.7537231445313	98.35120391845706	-717.6727905273439	-476.5289306640626	49.93626403808595	-696.8588256835939	-259.2187500000001	54.22277832031251	-645.0717163085939	-272.0842285156251	58.14913558959962	-606.9285278320314	-325.9681396484376	36.00371932983399	-565.6146850585939	nan	nan	nan	nan	nan	nan	nan	nan	nan	nan	nan	nan	
501	2.5	17.95952415466309	1070.877075195313	-881.5510253906252	-108.9709091186524	1026.375854492188	-926.0776977539065	-166.8129272460938	989.877624511719	-794.907165527344	-182.1635437011719	930.2144775390627	-850.7512207031252	-429.8197021484376	751.8549804687501	-853.4270629882815	-124.7112045288086	789.167175292969	-844.0208129882815	-82.40048217773439	831.3896484375002	-1007.672729492188	-190.8778381347657	758.7763061523439	-1178.290893554688	-222.248764038086	722.4278564453126	-1167.41064453125	-239.5201416015626	735.9868164062501	-1223.186401367188	-291.9576416015626	722.7227783203126	-1266.316772460938	-328.7966003417969	787.302429199219	-1255.190063476563	-526.7160644531251	657.8754882812501	-1092.747680664063	-511.6373596191407	591.6974487304689	-1124.613647460938	-487.1531066894532	641.7531127929689	-1039.83056640625	-113.947006225586	834.0217285156252	-679.7653198242189	-237.4057159423829	830.202087402344	-516.3244018554689	-258.8843078613282	785.3331298828127	-510.853729248047	-285.5233764648438	816.7451171875002	-467.4689941406251	-340.2150878906251	786.404968261719	-428.4780578613282	-397.2565917968751	838.3906860351565	-468.5183715820314	-487.9425659179689	643.3292236328126	-627.6873779296876	-473.2749633789064	581.3565673828126	-582.7808837890626	-434.6654357910157	627.6592407226564	-675.6660766601564	nan	nan	nan	-567.0234985351564	661.8498535156251	-855.0740966796877	-589.0862426757814	642.8250732421876	-885.874694824219	-599.4104003906251	641.6525878906251	-832.5144042968752	-400.6634216308595	453.4876708984376	-1093.094848632813	-320.2325439453126	476.7608337402345	-1112.496459960938	-307.8277587890626	519.4943847656251	-1101.473876953125	-273.1744384765626	440.1618652343751	-1118.45751953125	-157.5666198730469	430.4570312500001	-1134.11669921875	-141.3869018554688	383.3010864257813	-1011.259033203125	-212.7995605468751	235.176986694336	-1108.159301757813	-297.2138061523438	249.4021911621094	-1137.383422851563	-266.6561584472657	218.5843200683594	-1127.711669921875	-301.5715942382813	146.4831237792969	-1099.955932617188	-405.7038574218751	104.5407943725586	-1108.282958984375	-357.2688293457032	98.76686859130862	-1032.462890625	-467.807098388672	47.83573150634766	-1065.593017578125	-245.8475189208985	56.70454406738283	-1090.71923828125	-257.6730957031251	55.75458908081056	-1135.9521484375	-312.8068847656251	33.24744033813477	-1175.30810546875	-393.9309082031251	476.4573974609376	-623.4855957031251	-330.2643432617188	492.4466552734376	-611.1804809570314	-317.2996826171876	522.2671508789064	-621.3353881835939	-267.2484130859376	437.3016357421876	-595.9462890625001	-177.3031005859375	410.6339416503907	-579.3904418945314	-146.4537353515625	390.0196228027345	-713.1002807617189	-218.9531860351563	246.7127380371094	-609.1182861328126	-328.6444091796876	235.5209960937501	-605.2224121093751	-293.0813293457032	204.7352752685547	-608.6550292968751	-304.6383666992188	156.6580200195313	-640.8771362304689	-416.036590576172	101.4348068237305	-636.5197753906251	-375.7485046386719	98.36045074462893	-717.6595458984376	-476.535614013672	49.93484497070314	-696.8566894531251	-259.2088012695313	54.19939422607423	-645.0999755859376	-272.1307983398438	58.12699127197267	-606.9340820312501	-326.0200500488282	36.05779266357423	-565.6181640625001	nan	nan	nan	nan	nan	nan	nan	nan	nan	nan	nan	nan	
502	2.505	18.23514747619629	1070.694091796875	-881.6706542968752	-108.7537918090821	1026.08447265625	-926.2250976562502	-166.7939147949219	989.6727294921877	-795.023376464844	-182.0825805664063	930.0352172851565	-850.7600097656252	-429.8247680664064	751.7998657226564	-853.3944091796877	-124.6261596679688	788.8860473632815	-843.935729980469	-82.28099060058595	830.9925537109377	-1007.660888671875	-190.8616943359375	758.5341186523439	-1178.309326171875	-222.2693939208985	722.3070678710939	-1167.432006835938	-239.5238647460938	735.7651367187501	-1223.196166992188	-291.9420776367188	722.5484008789064	-1266.288452148438	-328.7190856933594	787.1888427734377	-1255.1748046875	-526.7145996093751	657.7973022460939	-1092.718872070313	-511.6846618652345	591.6475219726564	-1124.699096679688	-487.1758117675782	641.6990966796876	-1039.784057617188	-114.0963516235352	833.8339843750002	-679.6192016601564	-237.4892730712891	829.8731689453127	-516.2272949218751	-258.9176330566407	785.199645996094	-510.8020019531251	-285.6618652343751	816.5684204101565	-467.4012756347657	-340.2932739257813	786.050964355469	-428.5698242187501	-397.1679077148439	837.8635253906252	-468.4859924316407	-487.8166809082032	643.1656494140626	-627.5344848632814	-473.447967529297	581.1014404296876	-582.7006225585939	-434.5125122070314	627.4078369140626	-675.4957275390626	nan	nan	nan	-566.9484863281251	661.7156372070314	-855.0411376953127	-589.0419921875001	642.7789916992189	-885.845886230469	-599.4291992187501	641.5379638671876	-832.488708496094	-400.554901123047	453.4464111328126	-1093.028076171875	-320.2608337402344	476.6820068359376	-1112.439453125	-307.8321533203126	519.5124511718751	-1101.424072265625	-273.0748901367188	440.0710449218751	-1118.375610351563	-157.5373077392578	430.3831481933595	-1134.06787109375	-141.0739135742188	383.1214599609376	-1011.104125976563	-212.7460632324219	235.2069396972657	-1108.146362304688	-297.2351074218751	249.4371795654297	-1137.315063476563	-266.6363525390626	218.642074584961	-1127.7001953125	-302.0937500000001	147.5909881591797	-1099.86328125	-405.6038513183595	104.496810913086	-1108.234497070313	-357.2210693359376	98.76436614990237	-1032.415161132813	-467.860076904297	47.94303131103516	-1065.62548828125	-245.7854461669922	56.64759445190431	-1090.725830078125	-257.7011413574219	55.7973098754883	-1135.919067382813	-312.8087463378907	33.2603988647461	-1175.31982421875	-394.2480773925782	476.0960998535157	-623.6647338867189	-329.9796142578126	492.7543334960939	-610.7136230468751	-317.3639221191407	522.0973510742189	-621.1690063476564	-267.3599853515626	437.2899475097657	-595.8063964843751	-177.280990600586	410.6407165527345	-579.3467407226564	-146.4007415771485	390.0118408203126	-713.0148925781251	-218.9630432128907	246.571762084961	-609.0898437500001	-328.5974121093751	235.4745025634766	-605.1838989257814	-293.0840759277344	204.5818481445313	-608.6686401367189	-304.6464233398438	156.6123809814453	-640.8018798828126	-416.0349426269532	101.3879470825196	-636.4941406250001	-375.7272644042969	98.38404083251956	-717.6569824218751	-476.5105590820314	49.9547805786133	-696.8663940429689	-259.2312927246094	54.18738174438478	-645.1086425781251	-272.1369018554688	58.22941970825197	-606.8607788085939	-326.0133972167969	36.05258178710938	-565.6043090820314	nan	nan	nan	nan	nan	nan	nan	nan	nan	nan	nan	nan	
